<svg height="574" width="720" xmlns="http://www.w3.org/2000/svg">
<rect height="574" fill="#555" width="720"></rect>
<text fill="#7f7" font-family="Courier New" font-size="12" xml:space="preserve">
<tspan x="10" y="26">2 megabytes installed</tspan>
<tspan x="10" y="42"></tspan>
<tspan x="10" y="58">node_modules</tspan>
<tspan x="10" y="74">└─┬ helmet@3.5.0 </tspan>
<tspan x="10" y="90">  ├─┬ connect@3.6.0 </tspan>
<tspan x="10" y="106">  │ ├─┬ debug@2.6.1 </tspan>
<tspan x="10" y="122">  │ │ └── ms@0.7.2 </tspan>
<tspan x="10" y="138">  │ ├─┬ finalhandler@1.0.0 </tspan>
<tspan x="10" y="154">  │ │ ├── encodeurl@1.0.1 </tspan>
<tspan x="10" y="170">  │ │ ├── escape-html@1.0.3 </tspan>
<tspan x="10" y="186">  │ │ ├─┬ on-finished@2.3.0 </tspan>
<tspan x="10" y="202">  │ │ │ └── ee-first@1.1.1 </tspan>
<tspan x="10" y="218">  │ │ ├── statuses@1.3.1 </tspan>
<tspan x="10" y="234">  │ │ └── unpipe@1.0.0 </tspan>
<tspan x="10" y="250">  │ ├── parseurl@1.3.1 </tspan>
<tspan x="10" y="266">  │ └── utils-merge@1.0.0 </tspan>
<tspan x="10" y="282">  ├── dns-prefetch-control@0.1.0 </tspan>
<tspan x="10" y="298">  ├── dont-sniff-mimetype@1.0.0 </tspan>
<tspan x="10" y="314">  ├── frameguard@3.0.0 </tspan>
<tspan x="10" y="330">  ├─┬ helmet-csp@2.4.0 </tspan>
<tspan x="10" y="346">  │ ├── camelize@1.0.0 </tspan>
<tspan x="10" y="362">  │ ├─┬ content-security-policy-builder@1.1.0 </tspan>
<tspan x="10" y="378">  │ │ └── dashify@0.2.2 </tspan>
<tspan x="10" y="394">  │ ├── dasherize@2.0.0 </tspan>
<tspan x="10" y="410">  │ ├── lodash.reduce@4.6.0 </tspan>
<tspan x="10" y="426">  │ └── platform@1.3.3 </tspan>
<tspan x="10" y="442">  ├── hide-powered-by@1.0.0 </tspan>
<tspan x="10" y="458">  ├── hpkp@2.0.0 </tspan>
<tspan x="10" y="474">  ├─┬ hsts@2.0.0 </tspan>
<tspan x="10" y="490">  │ └── core-util-is@1.0.2 </tspan>
<tspan x="10" y="506">  ├── ienoopen@1.0.0 </tspan>
<tspan x="10" y="522">  ├── nocache@2.0.0 </tspan>
<tspan x="10" y="538">  ├── referrer-policy@1.1.0 </tspan>
<tspan x="10" y="554">  └── x-xss-protection@1.0.0</tspan>
</text>
</svg>
